<svg width="118" height="21" viewBox="0 0 118 21" fill="none" xmlns="http://www.w3.org/2000/svg">
<g clip-path="url(#clip0_1_779)">
<path d="M1.0127 17.8612L3.67889 15.1948C4.0488 15.5649 4.54119 15.7692 5.06241 15.7692C6.141 15.7692 7.02008 14.8899 7.02008 13.8117V1.8736L10.7911 0.672676V13.8117C10.7911 15.3414 10.1956 16.7803 9.11211 17.8612C8.02896 18.942 6.59251 19.5401 5.06241 19.5401C3.53247 19.5401 2.09358 18.9443 1.0127 17.8612Z" fill="#1F1F1F"/>
<path d="M18.3319 18.7597C17.2027 18.2817 16.1893 17.5996 15.3197 16.7301C14.4503 15.8605 13.7681 14.8469 13.2901 13.7179C12.7952 12.5481 12.5454 11.3063 12.5454 10.0285C12.5454 8.75071 12.7952 7.50874 13.2901 6.33909C13.7681 5.21017 14.4503 4.1964 15.3197 3.32694C16.1893 2.45747 17.2027 1.77533 18.3319 1.29727C19.5017 0.802441 20.7435 0.552582 22.0211 0.552582C23.2991 0.552582 24.5409 0.802441 25.7107 1.29727C26.8398 1.77533 27.8532 2.45748 28.7227 3.32694C29.5925 4.1964 30.2746 5.21017 30.7526 6.33909C31.2474 7.50874 31.4972 8.75071 31.4972 10.0285C31.4972 11.3063 31.2474 12.5481 30.7526 13.7179C30.2746 14.8469 29.5925 15.8605 28.7227 16.7301C27.8532 17.5996 26.8398 18.2817 25.7107 18.7597C24.5409 19.2546 23.2991 19.5043 22.0211 19.5043C20.7435 19.5043 19.5017 19.2546 18.3319 18.7597ZM17.9859 5.99558C16.9073 7.07401 16.3141 8.50558 16.3141 10.031C16.3141 11.5561 16.9073 12.9877 17.9859 14.0661C19.0646 15.1448 20.4959 15.7379 22.0211 15.7379C23.5466 15.7379 24.9781 15.1448 26.0566 14.0661C27.1349 12.9877 27.7285 11.5561 27.7285 10.031C27.7285 8.50558 27.1349 7.07401 26.0566 5.99558C24.9781 4.91715 23.5441 4.32377 22.0211 4.32377C20.4986 4.32377 19.0646 4.91715 17.9859 5.99558Z" fill="#1F1F1F"/>
<path d="M42.9032 0.672676L38.6758 6.92747L34.4266 0.672676H29.9806L36.2592 10.038L29.8965 19.4082H34.3523L38.6422 13.151L38.6475 13.1588L47.2293 0.672676H42.9032Z" fill="#1F1F1F"/>
<path d="M44.2907 14.7917H39.7664L42.9315 19.4082H47.4375L44.2907 14.7917Z" fill="#1F1F1F"/>
<path d="M51.6365 7.70799V19.408H47.8655V0.672676H51.2065L59.587 12.4807V0.672676H63.3584V19.408H59.9451L51.6365 7.70799Z" fill="#1F1F1F"/>
<path d="M65.9253 19.4082H78.0552V15.9011H65.9253V19.4082ZM65.9253 11.8658H78.0552V8.28687H65.9253V11.8658ZM65.9253 0.672676V4.25165H78.0552V0.672676H65.9253Z" fill="#1F1F1F"/>
<path d="M91.1766 7.55668L87.7825 19.4082H84.5158L78.5518 0.672676H82.5583L86.1277 12.2838L89.3944 0.672676H92.9491L96.1962 12.2646L99.7877 0.672676H103.768L97.7791 19.4082H94.5105L91.1766 7.55668Z" fill="#1F1F1F"/>
<path d="M103.787 16.6434L103.28 16.1003L105.762 13.1317L106.403 13.9363C106.905 14.5657 107.56 15.082 108.295 15.4279C108.988 15.7546 109.734 15.9251 110.454 15.9251C111.306 15.9251 112.031 15.7377 112.496 15.3992C112.917 15.094 113.121 14.6857 113.121 14.1477C113.121 13.5616 112.941 13.199 112.482 12.8555C111.953 12.4615 111.098 12.1396 110.107 11.765C110.023 11.7337 109.936 11.7001 109.848 11.6664C108.485 11.1597 107.176 10.6385 106.127 9.8026C105.516 9.31735 105.065 8.78163 104.746 8.16676C104.39 7.4846 104.21 6.7088 104.21 5.86085C104.21 4.38368 104.849 3.01695 106.007 2.01279C107.131 1.04006 108.641 0.504509 110.263 0.504509C112.357 0.504509 114.401 1.25865 116.171 2.68304L116.81 3.19954L114.507 6.1972L113.834 5.64471C112.65 4.6671 111.349 4.10743 110.263 4.10743C109.254 4.10743 108.072 4.5446 108.053 5.7768C108.046 6.32685 108.31 6.62704 108.711 6.90818C109.285 7.31162 110.198 7.65987 111.164 8.02977L111.173 8.03221C111.325 8.09232 111.475 8.15241 111.627 8.20991C112.993 8.74563 114.286 9.25007 115.266 10.0572C116.424 11.0131 116.989 12.2717 116.989 13.9075C116.989 14.7938 116.799 15.6177 116.424 16.3574C116.071 17.0493 115.567 17.6523 114.918 18.1494C113.736 19.0524 112.144 19.5521 110.431 19.5521C107.899 19.5521 105.54 18.5195 103.787 16.6434Z" fill="#1F1F1F"/>
</g>
<defs>
<clipPath id="clip0_1_779">
<rect width="116.19" height="20" fill="white" transform="translate(0.904785 0.0283203)"/>
</clipPath>
</defs>
</svg>
