<svg xmlns="http://www.w3.org/2000/svg" xmlns:xlink="http://www.w3.org/1999/xlink" width="300" zoomAndPan="magnify" viewBox="0 0 224.87999 74.999997" height="100" preserveAspectRatio="xMidYMid meet" version="1.0"><defs><g/><clipPath id="2720986f93"><path d="M 28.546875 29.457031 L 209.167969 29.457031 L 209.167969 71.152344 L 28.546875 71.152344 Z M 28.546875 29.457031 " clip-rule="nonzero"/></clipPath><clipPath id="0613f29f0d"><path d="M 38.292969 29.457031 L 199.320312 29.457031 C 204.699219 29.457031 209.0625 33.820312 209.0625 39.203125 L 209.0625 61.40625 C 209.0625 66.789062 204.699219 71.152344 199.320312 71.152344 L 38.292969 71.152344 C 32.910156 71.152344 28.546875 66.789062 28.546875 61.40625 L 28.546875 39.203125 C 28.546875 33.820312 32.910156 29.457031 38.292969 29.457031 Z M 38.292969 29.457031 " clip-rule="nonzero"/></clipPath><clipPath id="cf39e607b4"><path d="M 24 3.847656 L 68.738281 3.847656 L 68.738281 64.566406 L 24 64.566406 Z M 24 3.847656 " clip-rule="nonzero"/></clipPath></defs><g clip-path="url(#2720986f93)"><g clip-path="url(#0613f29f0d)"><path fill="#000000" d="M 28.546875 29.457031 L 209.003906 29.457031 L 209.003906 71.152344 L 28.546875 71.152344 Z M 28.546875 29.457031 " fill-opacity="1" fill-rule="nonzero"/></g></g><g clip-path="url(#cf39e607b4)"><path fill="#ffb929" d="M 68.574219 29.496094 L 67.542969 20.382812 C 67.359375 18.785156 66.003906 17.570312 64.394531 17.570312 L 59.261719 17.570312 L 59.261719 14.96875 C 59.261719 8.867188 54.304688 3.90625 48.199219 3.90625 C 42.09375 3.90625 37.132812 8.867188 37.132812 14.96875 L 37.132812 17.570312 L 32.003906 17.570312 C 30.394531 17.570312 29.035156 18.785156 28.851562 20.382812 L 24.21875 61.066406 C 23.992188 63.015625 25.519531 64.710938 27.480469 64.710938 L 29.207031 64.710938 C 36.328125 34.144531 59.148438 29.90625 68.574219 29.496094 Z M 57.851562 20.890625 C 58.628906 20.890625 59.261719 21.527344 59.261719 22.304688 C 59.261719 23.082031 58.628906 23.71875 57.851562 23.71875 C 57.074219 23.71875 56.4375 23.082031 56.4375 22.304688 C 56.4375 21.527344 57.074219 20.890625 57.851562 20.890625 Z M 39.960938 14.984375 C 39.960938 10.449219 43.648438 6.746094 48.199219 6.746094 C 52.75 6.746094 56.4375 10.449219 56.4375 14.984375 L 56.4375 17.585938 L 39.960938 17.585938 Z M 38.546875 20.890625 C 39.324219 20.890625 39.960938 21.527344 39.960938 22.304688 C 39.960938 23.082031 39.324219 23.71875 38.546875 23.71875 C 37.769531 23.71875 37.132812 23.082031 37.132812 22.304688 C 37.132812 21.527344 37.769531 20.890625 38.546875 20.890625 Z M 38.546875 20.890625 " fill-opacity="1" fill-rule="nonzero"/></g><g fill="#ffb929" fill-opacity="1"><g transform="translate(46.362072, 55.880258)"><g><path d="M 2.84375 -1.953125 L 2.84375 -20.140625 C 2.84375 -20.691406 3.03125 -21.15625 3.40625 -21.53125 C 3.789062 -21.914062 4.253906 -22.109375 4.796875 -22.109375 L 17.65625 -22.109375 C 18.132812 -22.109375 18.539062 -21.9375 18.875 -21.59375 C 19.21875 -21.257812 19.390625 -20.851562 19.390625 -20.375 C 19.390625 -19.882812 19.21875 -19.46875 18.875 -19.125 C 18.539062 -18.789062 18.132812 -18.625 17.65625 -18.625 L 6.71875 -18.625 L 6.71875 -12.890625 L 16.234375 -12.890625 C 16.710938 -12.890625 17.117188 -12.710938 17.453125 -12.359375 C 17.796875 -12.015625 17.96875 -11.597656 17.96875 -11.109375 C 17.96875 -10.628906 17.796875 -10.222656 17.453125 -9.890625 C 17.117188 -9.566406 16.710938 -9.40625 16.234375 -9.40625 L 6.71875 -9.40625 L 6.71875 -3.46875 L 17.8125 -3.46875 C 18.289062 -3.46875 18.695312 -3.300781 19.03125 -2.96875 C 19.375 -2.632812 19.546875 -2.222656 19.546875 -1.734375 C 19.546875 -1.253906 19.375 -0.84375 19.03125 -0.5 C 18.695312 -0.164062 18.289062 0 17.8125 0 L 4.796875 0 C 4.253906 0 3.789062 -0.1875 3.40625 -0.5625 C 3.03125 -0.945312 2.84375 -1.410156 2.84375 -1.953125 Z M 2.84375 -1.953125 "/></g></g></g><g fill="#ffb929" fill-opacity="1"><g transform="translate(64.232581, 55.880258)"><g><path d="M 2.625 -21.3125 C 2.625 -21.84375 2.800781 -22.289062 3.15625 -22.65625 C 3.507812 -23.019531 3.960938 -23.203125 4.515625 -23.203125 C 5.066406 -23.203125 5.523438 -23.019531 5.890625 -22.65625 C 6.253906 -22.289062 6.4375 -21.84375 6.4375 -21.3125 L 6.4375 -1.734375 C 6.4375 -1.191406 6.253906 -0.738281 5.890625 -0.375 C 5.523438 -0.0195312 5.066406 0.15625 4.515625 0.15625 C 3.984375 0.15625 3.535156 -0.0195312 3.171875 -0.375 C 2.804688 -0.738281 2.625 -1.191406 2.625 -1.734375 Z M 2.625 -21.3125 "/></g></g></g><g fill="#ffb929" fill-opacity="1"><g transform="translate(69.978388, 55.880258)"><g><path d="M 1.484375 -8.34375 C 1.484375 -9.539062 1.679688 -10.664062 2.078125 -11.71875 C 2.484375 -12.769531 3.046875 -13.6875 3.765625 -14.46875 C 4.492188 -15.257812 5.351562 -15.878906 6.34375 -16.328125 C 7.332031 -16.785156 8.425781 -17.015625 9.625 -17.015625 C 10.957031 -17.015625 12.117188 -16.765625 13.109375 -16.265625 C 14.097656 -15.773438 14.921875 -15.132812 15.578125 -14.34375 C 16.242188 -13.5625 16.738281 -12.6875 17.0625 -11.71875 C 17.394531 -10.75 17.5625 -9.78125 17.5625 -8.8125 C 17.5625 -8.257812 17.378906 -7.816406 17.015625 -7.484375 C 16.660156 -7.148438 16.238281 -6.984375 15.75 -6.984375 L 5.3125 -6.984375 C 5.519531 -5.585938 6.050781 -4.53125 6.90625 -3.8125 C 7.769531 -3.101562 8.835938 -2.75 10.109375 -2.75 C 10.910156 -2.75 11.628906 -2.878906 12.265625 -3.140625 C 12.910156 -3.398438 13.503906 -3.753906 14.046875 -4.203125 C 14.191406 -4.304688 14.332031 -4.390625 14.46875 -4.453125 C 14.613281 -4.515625 14.800781 -4.546875 15.03125 -4.546875 C 15.445312 -4.546875 15.800781 -4.394531 16.09375 -4.09375 C 16.394531 -3.800781 16.546875 -3.4375 16.546875 -3 C 16.546875 -2.769531 16.5 -2.546875 16.40625 -2.328125 C 16.3125 -2.117188 16.191406 -1.953125 16.046875 -1.828125 C 15.285156 -1.160156 14.425781 -0.625 13.46875 -0.21875 C 12.507812 0.175781 11.367188 0.375 10.046875 0.375 C 8.835938 0.375 7.710938 0.164062 6.671875 -0.25 C 5.628906 -0.675781 4.722656 -1.265625 3.953125 -2.015625 C 3.191406 -2.773438 2.585938 -3.6875 2.140625 -4.75 C 1.703125 -5.8125 1.484375 -6.988281 1.484375 -8.28125 Z M 5.28125 -9.5 L 13.828125 -9.5 C 13.765625 -10.113281 13.628906 -10.6875 13.421875 -11.21875 C 13.210938 -11.757812 12.925781 -12.222656 12.5625 -12.609375 C 12.207031 -13.003906 11.78125 -13.316406 11.28125 -13.546875 C 10.789062 -13.773438 10.226562 -13.890625 9.59375 -13.890625 C 8.394531 -13.890625 7.414062 -13.488281 6.65625 -12.6875 C 5.90625 -11.894531 5.445312 -10.832031 5.28125 -9.5 Z M 5.28125 -9.5 "/></g></g></g><g fill="#ffb929" fill-opacity="1"><g transform="translate(85.76496, 55.880258)"><g><path d="M 10.171875 -17.015625 C 11.492188 -17.015625 12.617188 -16.820312 13.546875 -16.4375 C 14.472656 -16.050781 15.296875 -15.550781 16.015625 -14.9375 C 16.140625 -14.832031 16.269531 -14.660156 16.40625 -14.421875 C 16.539062 -14.191406 16.609375 -13.921875 16.609375 -13.609375 C 16.609375 -13.128906 16.429688 -12.71875 16.078125 -12.375 C 15.734375 -12.039062 15.320312 -11.875 14.84375 -11.875 C 14.375 -11.875 13.992188 -12 13.703125 -12.25 C 13.222656 -12.675781 12.695312 -13.019531 12.125 -13.28125 C 11.550781 -13.539062 10.890625 -13.671875 10.140625 -13.671875 C 9.441406 -13.671875 8.796875 -13.53125 8.203125 -13.25 C 7.617188 -12.96875 7.109375 -12.585938 6.671875 -12.109375 C 6.242188 -11.640625 5.910156 -11.082031 5.671875 -10.4375 C 5.429688 -9.789062 5.3125 -9.101562 5.3125 -8.375 L 5.3125 -8.3125 C 5.3125 -7.570312 5.429688 -6.875 5.671875 -6.21875 C 5.910156 -5.5625 6.25 -4.992188 6.6875 -4.515625 C 7.132812 -4.035156 7.660156 -3.65625 8.265625 -3.375 C 8.878906 -3.101562 9.554688 -2.96875 10.296875 -2.96875 C 11.785156 -2.96875 13.023438 -3.460938 14.015625 -4.453125 C 14.117188 -4.554688 14.257812 -4.648438 14.4375 -4.734375 C 14.625 -4.816406 14.832031 -4.859375 15.0625 -4.859375 C 15.519531 -4.859375 15.90625 -4.695312 16.21875 -4.375 C 16.539062 -4.050781 16.703125 -3.65625 16.703125 -3.1875 C 16.703125 -2.6875 16.523438 -2.285156 16.171875 -1.984375 C 15.429688 -1.273438 14.582031 -0.703125 13.625 -0.265625 C 12.664062 0.160156 11.492188 0.375 10.109375 0.375 C 8.859375 0.375 7.707031 0.148438 6.65625 -0.296875 C 5.601562 -0.753906 4.691406 -1.367188 3.921875 -2.140625 C 3.160156 -2.921875 2.5625 -3.835938 2.125 -4.890625 C 1.695312 -5.941406 1.484375 -7.054688 1.484375 -8.234375 L 1.484375 -8.3125 C 1.484375 -9.488281 1.695312 -10.609375 2.125 -11.671875 C 2.5625 -12.734375 3.164062 -13.65625 3.9375 -14.4375 C 4.71875 -15.226562 5.632812 -15.851562 6.6875 -16.3125 C 7.75 -16.78125 8.910156 -17.015625 10.171875 -17.015625 Z M 10.171875 -17.015625 "/></g></g></g><g fill="#ffb929" fill-opacity="1"><g transform="translate(100.509564, 55.880258)"><g><path d="M 0.921875 -15.03125 C 0.921875 -15.488281 1.078125 -15.875 1.390625 -16.1875 C 1.703125 -16.507812 2.09375 -16.671875 2.5625 -16.671875 L 3.1875 -16.671875 L 3.1875 -19.515625 C 3.1875 -20.046875 3.367188 -20.492188 3.734375 -20.859375 C 4.109375 -21.222656 4.566406 -21.40625 5.109375 -21.40625 C 5.640625 -21.40625 6.085938 -21.222656 6.453125 -20.859375 C 6.828125 -20.492188 7.015625 -20.046875 7.015625 -19.515625 L 7.015625 -16.671875 L 10.015625 -16.671875 C 10.472656 -16.671875 10.863281 -16.507812 11.1875 -16.1875 C 11.519531 -15.875 11.6875 -15.488281 11.6875 -15.03125 C 11.6875 -14.570312 11.519531 -14.179688 11.1875 -13.859375 C 10.863281 -13.546875 10.472656 -13.390625 10.015625 -13.390625 L 7.015625 -13.390625 L 7.015625 -5.203125 C 7.015625 -4.472656 7.191406 -3.941406 7.546875 -3.609375 C 7.898438 -3.285156 8.40625 -3.125 9.0625 -3.125 C 9.289062 -3.125 9.488281 -3.140625 9.65625 -3.171875 C 9.832031 -3.203125 9.953125 -3.21875 10.015625 -3.21875 C 10.429688 -3.21875 10.800781 -3.066406 11.125 -2.765625 C 11.457031 -2.460938 11.625 -2.085938 11.625 -1.640625 C 11.625 -1.285156 11.519531 -0.972656 11.3125 -0.703125 C 11.113281 -0.441406 10.878906 -0.257812 10.609375 -0.15625 C 10.191406 -0.0078125 9.773438 0.0976562 9.359375 0.171875 C 8.953125 0.242188 8.492188 0.28125 7.984375 0.28125 C 7.296875 0.28125 6.65625 0.195312 6.0625 0.03125 C 5.46875 -0.132812 4.957031 -0.40625 4.53125 -0.78125 C 4.101562 -1.164062 3.769531 -1.671875 3.53125 -2.296875 C 3.300781 -2.929688 3.1875 -3.703125 3.1875 -4.609375 L 3.1875 -13.390625 L 2.5625 -13.390625 C 2.09375 -13.390625 1.703125 -13.546875 1.390625 -13.859375 C 1.078125 -14.179688 0.921875 -14.570312 0.921875 -15.03125 Z M 0.921875 -15.03125 "/></g></g></g><g fill="#ffb929" fill-opacity="1"><g transform="translate(110.202208, 55.880258)"><g><path d="M 2.40625 -1.734375 L 2.40625 -14.9375 C 2.40625 -15.476562 2.582031 -15.929688 2.9375 -16.296875 C 3.289062 -16.671875 3.742188 -16.859375 4.296875 -16.859375 C 4.835938 -16.859375 5.289062 -16.671875 5.65625 -16.296875 C 6.03125 -15.929688 6.21875 -15.476562 6.21875 -14.9375 L 6.21875 -13.234375 C 6.664062 -14.304688 7.265625 -15.179688 8.015625 -15.859375 C 8.773438 -16.546875 9.578125 -16.890625 10.421875 -16.890625 C 11.035156 -16.890625 11.503906 -16.710938 11.828125 -16.359375 C 12.148438 -16.003906 12.3125 -15.550781 12.3125 -15 C 12.3125 -14.488281 12.164062 -14.078125 11.875 -13.765625 C 11.582031 -13.453125 11.222656 -13.253906 10.796875 -13.171875 C 9.410156 -12.921875 8.300781 -12.265625 7.46875 -11.203125 C 6.632812 -10.148438 6.21875 -8.632812 6.21875 -6.65625 L 6.21875 -1.734375 C 6.21875 -1.210938 6.03125 -0.765625 5.65625 -0.390625 C 5.289062 -0.0234375 4.835938 0.15625 4.296875 0.15625 C 3.765625 0.15625 3.316406 -0.0195312 2.953125 -0.375 C 2.585938 -0.738281 2.40625 -1.191406 2.40625 -1.734375 Z M 2.40625 -1.734375 "/></g></g></g><g fill="#ffb929" fill-opacity="1"><g transform="translate(119.958005, 55.880258)"><g><path d="M 1.296875 -4.859375 C 1.296875 -5.765625 1.460938 -6.550781 1.796875 -7.21875 C 2.140625 -7.894531 2.609375 -8.453125 3.203125 -8.890625 C 3.804688 -9.335938 4.53125 -9.671875 5.375 -9.890625 C 6.226562 -10.117188 7.160156 -10.234375 8.171875 -10.234375 C 9.117188 -10.234375 9.941406 -10.171875 10.640625 -10.046875 C 11.335938 -9.921875 12.007812 -9.75 12.65625 -9.53125 L 12.65625 -9.953125 C 12.65625 -11.148438 12.300781 -12.050781 11.59375 -12.65625 C 10.894531 -13.269531 9.875 -13.578125 8.53125 -13.578125 C 7.789062 -13.578125 7.125 -13.507812 6.53125 -13.375 C 5.945312 -13.238281 5.378906 -13.085938 4.828125 -12.921875 C 4.617188 -12.859375 4.421875 -12.828125 4.234375 -12.828125 C 3.785156 -12.828125 3.40625 -12.976562 3.09375 -13.28125 C 2.78125 -13.582031 2.625 -13.957031 2.625 -14.40625 C 2.625 -14.757812 2.722656 -15.070312 2.921875 -15.34375 C 3.117188 -15.613281 3.363281 -15.804688 3.65625 -15.921875 C 4.457031 -16.210938 5.28125 -16.445312 6.125 -16.625 C 6.96875 -16.800781 7.9375 -16.890625 9.03125 -16.890625 C 11.363281 -16.890625 13.164062 -16.320312 14.4375 -15.1875 C 15.71875 -14.050781 16.359375 -12.285156 16.359375 -9.890625 L 16.359375 -1.671875 C 16.359375 -1.148438 16.175781 -0.710938 15.8125 -0.359375 C 15.457031 -0.015625 15.019531 0.15625 14.5 0.15625 C 13.945312 0.15625 13.492188 -0.00390625 13.140625 -0.328125 C 12.796875 -0.660156 12.625 -1.035156 12.625 -1.453125 L 12.625 -2.078125 C 12.0625 -1.410156 11.335938 -0.835938 10.453125 -0.359375 C 9.566406 0.109375 8.484375 0.34375 7.203125 0.34375 C 6.421875 0.34375 5.671875 0.234375 4.953125 0.015625 C 4.242188 -0.203125 3.617188 -0.523438 3.078125 -0.953125 C 2.546875 -1.390625 2.113281 -1.925781 1.78125 -2.5625 C 1.457031 -3.207031 1.296875 -3.953125 1.296875 -4.796875 Z M 5.015625 -5.015625 L 5.015625 -4.953125 C 5.015625 -4.148438 5.320312 -3.53125 5.9375 -3.09375 C 6.550781 -2.65625 7.332031 -2.4375 8.28125 -2.4375 C 8.90625 -2.4375 9.488281 -2.519531 10.03125 -2.6875 C 10.582031 -2.851562 11.050781 -3.09375 11.4375 -3.40625 C 11.832031 -3.726562 12.144531 -4.109375 12.375 -4.546875 C 12.601562 -4.984375 12.71875 -5.46875 12.71875 -6 L 12.71875 -7.140625 C 12.238281 -7.328125 11.675781 -7.484375 11.03125 -7.609375 C 10.394531 -7.734375 9.695312 -7.796875 8.9375 -7.796875 C 7.675781 -7.796875 6.707031 -7.550781 6.03125 -7.0625 C 5.351562 -6.582031 5.015625 -5.898438 5.015625 -5.015625 Z M 5.015625 -5.015625 "/></g></g></g><g fill="#ffb929" fill-opacity="1"><g transform="translate(135.207809, 55.880258)"><g/></g></g><g fill="#ffb929" fill-opacity="1"><g transform="translate(138.553939, 55.880258)"><g><path d="M 2.84375 -20.34375 C 2.84375 -20.882812 3.03125 -21.335938 3.40625 -21.703125 C 3.789062 -22.078125 4.253906 -22.265625 4.796875 -22.265625 C 5.347656 -22.265625 5.804688 -22.078125 6.171875 -21.703125 C 6.535156 -21.335938 6.71875 -20.882812 6.71875 -20.34375 L 6.71875 -3.53125 L 16.734375 -3.53125 C 17.222656 -3.53125 17.640625 -3.359375 17.984375 -3.015625 C 18.328125 -2.671875 18.5 -2.253906 18.5 -1.765625 C 18.5 -1.285156 18.328125 -0.867188 17.984375 -0.515625 C 17.640625 -0.171875 17.222656 0 16.734375 0 L 4.796875 0 C 4.253906 0 3.789062 -0.1875 3.40625 -0.5625 C 3.03125 -0.945312 2.84375 -1.410156 2.84375 -1.953125 Z M 2.84375 -20.34375 "/></g></g></g><g fill="#ffb929" fill-opacity="1"><g transform="translate(154.814134, 55.880258)"><g><path d="M 2.203125 -6.0625 L 2.203125 -14.9375 C 2.203125 -15.476562 2.382812 -15.929688 2.75 -16.296875 C 3.125 -16.671875 3.578125 -16.859375 4.109375 -16.859375 C 4.648438 -16.859375 5.101562 -16.671875 5.46875 -16.296875 C 5.84375 -15.929688 6.03125 -15.476562 6.03125 -14.9375 L 6.03125 -7.203125 C 6.03125 -5.867188 6.335938 -4.859375 6.953125 -4.171875 C 7.578125 -3.492188 8.457031 -3.15625 9.59375 -3.15625 C 10.738281 -3.15625 11.648438 -3.507812 12.328125 -4.21875 C 13.015625 -4.925781 13.359375 -5.941406 13.359375 -7.265625 L 13.359375 -14.9375 C 13.359375 -15.476562 13.539062 -15.929688 13.90625 -16.296875 C 14.28125 -16.671875 14.738281 -16.859375 15.28125 -16.859375 C 15.8125 -16.859375 16.265625 -16.671875 16.640625 -16.296875 C 17.015625 -15.929688 17.203125 -15.476562 17.203125 -14.9375 L 17.203125 -1.734375 C 17.203125 -1.210938 17.019531 -0.765625 16.65625 -0.390625 C 16.289062 -0.0234375 15.832031 0.15625 15.28125 0.15625 C 14.757812 0.15625 14.304688 -0.0195312 13.921875 -0.375 C 13.546875 -0.738281 13.359375 -1.191406 13.359375 -1.734375 L 13.359375 -2.59375 C 12.804688 -1.789062 12.117188 -1.097656 11.296875 -0.515625 C 10.484375 0.0546875 9.429688 0.34375 8.140625 0.34375 C 6.234375 0.34375 4.765625 -0.226562 3.734375 -1.375 C 2.710938 -2.519531 2.203125 -4.082031 2.203125 -6.0625 Z M 2.203125 -6.0625 "/></g></g></g><g fill="#ffb929" fill-opacity="1"><g transform="translate(171.105899, 55.880258)"><g><path d="M 1.515625 -1.453125 C 1.515625 -1.910156 1.691406 -2.351562 2.046875 -2.78125 L 6.796875 -8.46875 L 2.40625 -13.671875 C 2.1875 -13.921875 2.023438 -14.160156 1.921875 -14.390625 C 1.816406 -14.628906 1.765625 -14.875 1.765625 -15.125 C 1.765625 -15.675781 1.9375 -16.109375 2.28125 -16.421875 C 2.632812 -16.734375 3.050781 -16.890625 3.53125 -16.890625 C 3.914062 -16.890625 4.25 -16.804688 4.53125 -16.640625 C 4.8125 -16.472656 5.070312 -16.242188 5.3125 -15.953125 L 9.0625 -11.015625 L 12.890625 -15.921875 C 13.117188 -16.210938 13.363281 -16.445312 13.625 -16.625 C 13.882812 -16.800781 14.1875 -16.890625 14.53125 -16.890625 C 15.03125 -16.890625 15.453125 -16.734375 15.796875 -16.421875 C 16.148438 -16.109375 16.328125 -15.707031 16.328125 -15.21875 C 16.328125 -14.945312 16.28125 -14.707031 16.1875 -14.5 C 16.09375 -14.300781 15.957031 -14.109375 15.78125 -13.921875 L 11.265625 -8.53125 L 15.953125 -3 C 16.160156 -2.75 16.316406 -2.503906 16.421875 -2.265625 C 16.523438 -2.035156 16.578125 -1.796875 16.578125 -1.546875 C 16.578125 -0.992188 16.398438 -0.5625 16.046875 -0.25 C 15.703125 0.0625 15.289062 0.21875 14.8125 0.21875 C 14.425781 0.21875 14.09375 0.132812 13.8125 -0.03125 C 13.53125 -0.195312 13.273438 -0.441406 13.046875 -0.765625 L 9 -5.96875 L 4.953125 -0.765625 C 4.722656 -0.484375 4.476562 -0.25 4.21875 -0.0625 C 3.957031 0.125 3.644531 0.21875 3.28125 0.21875 C 2.800781 0.21875 2.382812 0.0625 2.03125 -0.25 C 1.6875 -0.5625 1.515625 -0.960938 1.515625 -1.453125 Z M 1.515625 -1.453125 "/></g></g></g><g fill="#ffb929" fill-opacity="1"><g transform="translate(185.913659, 55.880258)"><g><path d="M 1.484375 -8.34375 C 1.484375 -9.539062 1.679688 -10.664062 2.078125 -11.71875 C 2.484375 -12.769531 3.046875 -13.6875 3.765625 -14.46875 C 4.492188 -15.257812 5.351562 -15.878906 6.34375 -16.328125 C 7.332031 -16.785156 8.425781 -17.015625 9.625 -17.015625 C 10.957031 -17.015625 12.117188 -16.765625 13.109375 -16.265625 C 14.097656 -15.773438 14.921875 -15.132812 15.578125 -14.34375 C 16.242188 -13.5625 16.738281 -12.6875 17.0625 -11.71875 C 17.394531 -10.75 17.5625 -9.78125 17.5625 -8.8125 C 17.5625 -8.257812 17.378906 -7.816406 17.015625 -7.484375 C 16.660156 -7.148438 16.238281 -6.984375 15.75 -6.984375 L 5.3125 -6.984375 C 5.519531 -5.585938 6.050781 -4.53125 6.90625 -3.8125 C 7.769531 -3.101562 8.835938 -2.75 10.109375 -2.75 C 10.910156 -2.75 11.628906 -2.878906 12.265625 -3.140625 C 12.910156 -3.398438 13.503906 -3.753906 14.046875 -4.203125 C 14.191406 -4.304688 14.332031 -4.390625 14.46875 -4.453125 C 14.613281 -4.515625 14.800781 -4.546875 15.03125 -4.546875 C 15.445312 -4.546875 15.800781 -4.394531 16.09375 -4.09375 C 16.394531 -3.800781 16.546875 -3.4375 16.546875 -3 C 16.546875 -2.769531 16.5 -2.546875 16.40625 -2.328125 C 16.3125 -2.117188 16.191406 -1.953125 16.046875 -1.828125 C 15.285156 -1.160156 14.425781 -0.625 13.46875 -0.21875 C 12.507812 0.175781 11.367188 0.375 10.046875 0.375 C 8.835938 0.375 7.710938 0.164062 6.671875 -0.25 C 5.628906 -0.675781 4.722656 -1.265625 3.953125 -2.015625 C 3.191406 -2.773438 2.585938 -3.6875 2.140625 -4.75 C 1.703125 -5.8125 1.484375 -6.988281 1.484375 -8.28125 Z M 5.28125 -9.5 L 13.828125 -9.5 C 13.765625 -10.113281 13.628906 -10.6875 13.421875 -11.21875 C 13.210938 -11.757812 12.925781 -12.222656 12.5625 -12.609375 C 12.207031 -13.003906 11.78125 -13.316406 11.28125 -13.546875 C 10.789062 -13.773438 10.226562 -13.890625 9.59375 -13.890625 C 8.394531 -13.890625 7.414062 -13.488281 6.65625 -12.6875 C 5.90625 -11.894531 5.445312 -10.832031 5.28125 -9.5 Z M 5.28125 -9.5 "/></g></g></g></svg>