<svg width="133" height="132" viewBox="0 0 133 132" fill="none" xmlns="http://www.w3.org/2000/svg">
<path fill-rule="evenodd" clip-rule="evenodd" d="M66.0756 106C88.167 106 106.076 88.0914 106.076 66C106.076 43.9086 88.167 26 66.0756 26C43.9842 26 26.0756 43.9086 26.0756 66C26.0756 88.0914 43.9842 106 66.0756 106ZM66.0756 132C102.526 132 132.076 102.451 132.076 66C132.076 29.5492 102.526 0 66.0756 0C29.6248 0 0.0756226 29.5492 0.0756226 66C0.0756226 102.451 29.6248 132 66.0756 132Z" fill="#19BF6F"/>
<path d="M65.8175 26.0008C43.8449 26.1397 26.0756 43.9947 26.0756 66C26.0756 77.4722 30.9052 87.8164 38.6421 95.1104L20.2525 113.5C7.81271 101.497 0.0756226 84.6519 0.0756226 66C0.0756226 29.6353 29.4854 0.139615 65.8175 0.00049417V26.0008Z" fill="#FAB408"/>
</svg>
