<svg width="84" height="84" viewBox="0 0 84 84" fill="none" xmlns="http://www.w3.org/2000/svg">
<path d="M56.1557 32.0529H77.9728C78.9219 32.0529 79.835 31.6518 80.4778 30.9522C81.1211 30.252 81.4442 29.3075 81.3638 28.3603C81.0606 24.7802 79.44 21.4615 76.8004 19.0155C76.0043 18.278 75.1368 17.6398 74.2144 17.1075C75.9951 15.2911 77.0952 12.8015 77.0952 10.059C77.0952 4.51254 72.5953 0 67.0642 0C61.533 0 57.0331 4.51254 57.0331 10.0592C57.0331 12.8016 58.1332 15.2913 59.9141 17.1076C58.9919 17.64 58.1241 18.2782 57.3283 19.0157C54.6885 21.4615 53.0679 24.7803 52.7649 28.3605C52.6846 29.3075 53.0075 30.2523 53.6508 30.9524C54.2936 31.6518 55.2066 32.0529 56.1557 32.0529ZM61.955 10.0592C61.955 7.22646 64.247 4.92188 67.0642 4.92188C69.8814 4.92188 72.1733 7.22646 72.1733 10.0592C72.1733 12.892 69.8814 15.1965 67.0642 15.1965C64.247 15.1965 61.955 12.8919 61.955 10.0592ZM60.6735 22.6259C62.4186 21.0089 64.6883 20.1183 67.0642 20.1183C69.4402 20.1183 71.7097 21.0089 73.4548 22.6259C74.7799 23.8535 75.7149 25.4148 76.1728 27.131H57.9556C58.4135 25.4148 59.3485 23.8537 60.6735 22.6259Z" fill="#5B5B5B"/>
<path d="M15.5299 32.0529H37.3467C38.2958 32.0529 39.209 31.6518 39.8518 30.9522C40.4951 30.252 40.8181 29.3075 40.7377 28.3603C40.4345 24.7802 38.8139 21.4615 36.1743 19.0155C35.3785 18.278 34.5107 17.6398 33.5885 17.1075C35.3694 15.291 36.4695 12.8015 36.4695 10.059C36.4695 4.51254 31.9696 0 26.4384 0C20.9072 0 16.4073 4.51254 16.4073 10.0592C16.4073 12.8016 17.5073 15.2913 19.2882 17.1076C18.366 17.64 17.4983 18.2782 16.7024 19.0157C14.0626 21.4617 12.442 24.7803 12.139 28.3605C12.0588 29.3075 12.3817 30.2521 13.0249 30.9524C13.6677 31.6518 14.5808 32.0529 15.5299 32.0529ZM21.3291 10.0592C21.3291 7.22646 23.6211 4.92188 26.4384 4.92188C29.2557 4.92188 31.5476 7.22646 31.5476 10.0592C31.5476 12.892 29.2557 15.1965 26.4384 15.1965C23.6211 15.1965 21.3291 12.8919 21.3291 10.0592ZM20.0478 22.6259C21.7929 21.0089 24.0624 20.1183 26.4384 20.1183C28.8143 20.1183 31.0838 21.0089 32.8289 22.6259C34.1541 23.8535 35.0891 25.4148 35.547 27.131H17.3296C17.7875 25.4148 18.7225 23.8537 20.0478 22.6259Z" fill="#5B5B5B"/>
<path d="M76.8005 59.9744C76.0045 59.2369 75.1369 58.5987 74.2146 58.0663C75.9953 56.25 77.0954 53.7603 77.0954 51.018C77.0954 45.4712 72.5954 40.9589 67.0644 40.9589C61.5332 40.9589 57.0333 45.4714 57.0333 51.018C57.0333 53.7603 58.1333 56.25 59.9142 58.0663C58.992 58.5987 58.1243 59.2369 57.3284 59.9744C54.6887 62.4202 53.0681 65.739 52.765 69.3192C52.6848 70.2663 53.0077 71.2112 53.651 71.9112C54.2938 72.6108 55.2066 73.0119 56.1559 73.0119H77.9729C78.922 73.0119 79.835 72.6108 80.478 71.9112C81.1213 71.2112 81.4443 70.2665 81.3639 69.3192C81.0609 65.7389 79.4403 62.4204 76.8005 59.9744ZM61.9553 51.018C61.9553 48.1852 64.2473 45.8807 67.0646 45.8807C69.8817 45.8807 72.1736 48.1853 72.1736 51.018C72.1736 53.8507 69.8817 56.1553 67.0646 56.1553C64.2473 56.1551 61.9553 53.8506 61.9553 51.018ZM57.956 68.0899C58.4139 66.3736 59.3489 64.8122 60.6738 63.5846C62.419 61.9676 64.6886 61.077 67.0646 61.077C69.4405 61.077 71.71 61.9676 73.4551 63.5846C74.7803 64.8122 75.7153 66.3736 76.1732 68.0899H57.956Z" fill="#5B5B5B"/>
<path d="M26.4378 36.9924C14.5154 36.9924 4.81584 46.693 4.81584 58.6165C4.81584 64.0929 6.86203 69.1005 10.2301 72.9146L3.34634 79.7991C2.38542 80.7602 2.38559 82.3185 3.3465 83.2796C3.82704 83.7598 4.45671 84 5.08655 84C5.71638 84 6.34638 83.7596 6.82676 83.2791L13.8887 76.2163C17.4295 78.7486 21.7627 80.2403 26.4378 80.2403C38.3602 80.2403 48.0598 70.5398 48.0598 58.6162C48.0598 46.6926 38.3602 36.9924 26.4378 36.9924ZM26.4378 75.3186C17.2293 75.3186 9.73772 67.826 9.73772 58.6164C9.73772 49.4067 17.2293 41.9141 26.4378 41.9141C35.6463 41.9141 43.1379 49.4067 43.1379 58.6164C43.1379 67.826 35.6463 75.3186 26.4378 75.3186Z" fill="#367166"/>
<path d="M33.3019 51.9561L23.5024 61.7566L19.5723 57.826C18.6112 56.8651 17.0531 56.8652 16.0919 57.8258C15.1309 58.7867 15.1308 60.345 16.0917 61.3062L21.7622 66.9772C22.2429 67.4578 22.8727 67.6981 23.5024 67.6981C24.1321 67.6981 24.7621 67.4578 25.2424 66.9774L25.2426 66.9772L36.7823 55.4362C37.7432 54.4752 37.743 52.9169 36.7821 51.9558C35.8209 50.9949 34.2628 50.9951 33.3019 51.9561Z" fill="#367166"/>
</svg>
