<svg width="84" height="84" viewBox="0 0 84 84" fill="none" xmlns="http://www.w3.org/2000/svg">
<g clip-path="url(#clip0_0_224)">
<path d="M81.5337 69.9195H76.5692V37.0841C76.5692 35.7244 75.465 34.622 74.1029 34.622H60.4857C59.1237 34.622 58.0195 35.7244 58.0195 37.0841V69.9195H51.275V27.3292C51.275 25.9695 50.1708 24.8671 48.8087 24.8671H35.1915C33.8294 24.8671 32.7252 25.9695 32.7252 27.3292V69.9195H25.9807V34.4785C25.9807 33.1187 24.8765 32.0164 23.5144 32.0164H9.89706C8.53499 32.0164 7.4308 33.1187 7.4308 34.4785V69.9195H2.46626C1.1042 69.9195 0 71.0219 0 72.3816C0 73.7414 1.1042 74.8438 2.46626 74.8438H81.5337C82.8958 74.8438 84 73.7414 84 72.3816C84 71.0219 82.8958 69.9195 81.5337 69.9195ZM12.3633 69.9195V36.9407H21.0482V69.9195H12.3633ZM37.6576 69.9195V29.7914H46.3424V69.9195H37.6576ZM62.952 69.9195V39.5463H71.6368V69.9195H62.952Z" fill="#5B5B5B"/>
<path d="M82.1969 18.5262C82.2787 17.4972 81.6789 16.2336 80.3055 15.914L72.3503 13.9804C71.0284 13.6582 69.6974 14.4698 69.3763 15.7912C69.0551 17.1126 69.8658 18.4441 71.1871 18.7652L73.4372 19.3121L67.0589 23.2481L42.8746 9.47971C42.1793 9.08363 41.3343 9.05031 40.6104 9.39058L16.5709 20.6742L5.079 13.5022C3.92556 12.7818 2.40673 13.1337 1.68663 14.2873C0.966698 15.4408 1.31829 16.9596 2.4719 17.6797L15.1005 25.5611C15.8091 26.0034 16.6938 26.0563 17.4502 25.7012L41.5473 14.3904L65.8915 28.2499C66.525 28.5821 67.4079 28.7543 68.4028 28.2054L76.1348 23.4339L75.6199 25.8455C75.0532 29.0534 79.5943 29.9644 80.4355 26.874L82.1423 18.8812C82.1616 18.7693 82.1689 18.785 82.1969 18.5262Z" fill="#367166"/>
</g>
<defs>
<clipPath id="clip0_0_224">
<rect width="84" height="84" fill="white"/>
</clipPath>
</defs>
</svg>
