<svg width="84" height="84" viewBox="0 0 84 84" fill="none" xmlns="http://www.w3.org/2000/svg">
<g clip-path="url(#clip0_0_216)">
<path d="M34.6171 22.9947V33.1761L35.338 33.8969C35.5684 34.1271 41.104 39.5394 51.8437 39.5394C62.5834 39.5394 68.119 34.1271 68.3494 33.8968L69.0703 33.1759V22.9945L73.9921 21.0258V34.6175H78.914V19.057L83.0794 17.3909L51.8437 4.89661L20.608 17.3909L34.6171 22.9947ZM64.1484 31.0096C62.5817 32.1795 58.5159 34.6175 51.8437 34.6175C45.1714 34.6175 41.1056 32.1795 39.539 31.0096V24.9633L51.8437 29.8851L64.1484 24.9633V31.0096ZM69.8267 17.3909L51.8437 24.5841L33.8606 17.3909L51.8437 10.1978L69.8267 17.3909Z" fill="#5B5B5B"/>
<path d="M18.9664 21.4277L15.4861 17.9475L12.3374 21.0961C12.8834 12.0855 20.3857 4.92188 29.531 4.92188V0C17.6521 0 7.92873 9.40029 7.40602 21.1526L4.20074 17.9475L0.720642 21.4277L9.8435 30.5506L18.9664 21.4277Z" fill="#367166"/>
<path d="M83.2791 57.6506L74.1562 48.5277L65.0334 57.6506L68.5136 61.1308L71.6953 57.9492V61.8517C71.6953 71.3505 63.9675 79.0783 54.4687 79.0783V84.0002C66.6814 84.0002 76.6172 74.0644 76.6172 61.8517V57.9492L79.799 61.131L83.2791 57.6506Z" fill="#367166"/>
<path d="M59.2265 69.0706V53.5101L63.3919 51.8441L32.1562 39.3497L0.920486 51.8441L14.9296 57.4478V67.6292L15.6505 68.3501C15.8809 68.5803 21.4165 73.9925 32.1562 73.9925C42.8959 73.9925 48.4315 68.5802 48.6619 68.3499L49.3827 67.629V57.4476L54.3046 55.4789V69.0706H59.2265ZM44.4609 65.4627C42.8942 66.6327 38.8284 69.0706 32.1562 69.0706C25.4839 69.0706 21.4181 66.6327 19.8515 65.4627V59.4164L32.1562 64.3383L44.4609 59.4164V65.4627ZM32.1562 59.0372L14.1731 51.8441L32.1562 44.6509L50.1392 51.8441L32.1562 59.0372Z" fill="#5B5B5B"/>
</g>
<defs>
<clipPath id="clip0_0_216">
<rect width="84" height="84" fill="white"/>
</clipPath>
</defs>
</svg>
